<?xml version="1.0" standalone="no"?>
<svg xmlns:xlink="http://www.w3.org/1999/xlink" id="wave" style="transform:rotate(180deg); transition: 0.3s" viewBox="0 0 1440 490" version="1.1" xmlns="http://www.w3.org/2000/svg"><defs><linearGradient id="sw-gradient-0" x1="0" x2="0" y1="1" y2="0"><stop stop-color="rgba(243, 106, 62, 1)" offset="0%"/><stop stop-color="rgba(255, 179, 11, 1)" offset="100%"/></linearGradient></defs><path style="transform:translate(0, 0px); opacity:1" fill="url(#sw-gradient-0)" d="M0,147L48,130.7C96,114,192,82,288,114.3C384,147,480,245,576,269.5C672,294,768,245,864,212.3C960,180,1056,163,1152,138.8C1248,114,1344,82,1440,73.5C1536,65,1632,82,1728,130.7C1824,180,1920,261,2016,245C2112,229,2208,114,2304,89.8C2400,65,2496,131,2592,187.8C2688,245,2784,294,2880,277.7C2976,261,3072,180,3168,155.2C3264,131,3360,163,3456,155.2C3552,147,3648,98,3744,89.8C3840,82,3936,114,4032,163.3C4128,212,4224,278,4320,285.8C4416,294,4512,245,4608,220.5C4704,196,4800,196,4896,236.8C4992,278,5088,359,5184,375.7C5280,392,5376,343,5472,334.8C5568,327,5664,359,5760,310.3C5856,261,5952,131,6048,138.8C6144,147,6240,294,6336,351.2C6432,408,6528,376,6624,318.5C6720,261,6816,180,6864,138.8L6912,98L6912,490L6864,490C6816,490,6720,490,6624,490C6528,490,6432,490,6336,490C6240,490,6144,490,6048,490C5952,490,5856,490,5760,490C5664,490,5568,490,5472,490C5376,490,5280,490,5184,490C5088,490,4992,490,4896,490C4800,490,4704,490,4608,490C4512,490,4416,490,4320,490C4224,490,4128,490,4032,490C3936,490,3840,490,3744,490C3648,490,3552,490,3456,490C3360,490,3264,490,3168,490C3072,490,2976,490,2880,490C2784,490,2688,490,2592,490C2496,490,2400,490,2304,490C2208,490,2112,490,2016,490C1920,490,1824,490,1728,490C1632,490,1536,490,1440,490C1344,490,1248,490,1152,490C1056,490,960,490,864,490C768,490,672,490,576,490C480,490,384,490,288,490C192,490,96,490,48,490L0,490Z"/><defs><linearGradient id="sw-gradient-1" x1="0" x2="0" y1="1" y2="0"><stop stop-color="rgba(243, 106, 62, 1)" offset="0%"/><stop stop-color="rgba(255, 179, 11, 1)" offset="100%"/></linearGradient></defs><path style="transform:translate(0, 50px); opacity:0.9" fill="url(#sw-gradient-1)" d="M0,49L48,114.3C96,180,192,310,288,302.2C384,294,480,147,576,106.2C672,65,768,131,864,138.8C960,147,1056,98,1152,122.5C1248,147,1344,245,1440,285.8C1536,327,1632,310,1728,285.8C1824,261,1920,229,2016,212.3C2112,196,2208,196,2304,171.5C2400,147,2496,98,2592,98C2688,98,2784,147,2880,163.3C2976,180,3072,163,3168,163.3C3264,163,3360,180,3456,204.2C3552,229,3648,261,3744,236.8C3840,212,3936,131,4032,98C4128,65,4224,82,4320,98C4416,114,4512,131,4608,122.5C4704,114,4800,82,4896,106.2C4992,131,5088,212,5184,261.3C5280,310,5376,327,5472,277.7C5568,229,5664,114,5760,106.2C5856,98,5952,196,6048,253.2C6144,310,6240,327,6336,277.7C6432,229,6528,114,6624,122.5C6720,131,6816,261,6864,326.7L6912,392L6912,490L6864,490C6816,490,6720,490,6624,490C6528,490,6432,490,6336,490C6240,490,6144,490,6048,490C5952,490,5856,490,5760,490C5664,490,5568,490,5472,490C5376,490,5280,490,5184,490C5088,490,4992,490,4896,490C4800,490,4704,490,4608,490C4512,490,4416,490,4320,490C4224,490,4128,490,4032,490C3936,490,3840,490,3744,490C3648,490,3552,490,3456,490C3360,490,3264,490,3168,490C3072,490,2976,490,2880,490C2784,490,2688,490,2592,490C2496,490,2400,490,2304,490C2208,490,2112,490,2016,490C1920,490,1824,490,1728,490C1632,490,1536,490,1440,490C1344,490,1248,490,1152,490C1056,490,960,490,864,490C768,490,672,490,576,490C480,490,384,490,288,490C192,490,96,490,48,490L0,490Z"/></svg>